<svg xmlns="http://www.w3.org/2000/svg" version="1.1" xmlns:xlink="http://www.w3.org/1999/xlink" width="1500" height="1500" viewBox="0 0 1500 1500"><rect width="1500" height="1500" x="0" y="0" id="background" stroke="transparent" fill="#ffffff"></rect><svg xml:space="preserve" width="1000" height="1000" data-version="2" data-id="lg_56kOTLaCPMDyiFpkfF" viewBox="0 0 268 223" x="250" y="250"><rect width="100%" height="100%" fill="transparent"></rect><path d="m212.339 175.402-61.598-61.598A78.04 78.04 0 0 0 80.171 2.25c-42.925 0-77.846 34.92-77.846 78.088a78.185 78.185 0 0 0 111.07 70.813l61.84 61.84c5.092 5.092 11.64 7.76 18.673 7.76 7.033 0 13.58-2.668 18.673-7.76 10.186-10.428 10.186-27.161-.242-37.59m-8.003 29.344c-2.91 2.91-6.548 4.366-10.428 4.366-3.88 0-7.76-1.456-10.428-4.366l-67.903-67.902-3.88 1.94c-9.7 5.092-20.37 8.002-31.526 8.002-36.765 0-66.57-29.804-66.57-66.569s29.805-66.569 66.57-66.569a66.545 66.545 0 0 1 58.445 98.217l-1.94 3.88 67.66 67.66c2.91 2.91 4.365 6.548 4.365 10.428 0 3.88-1.455 8.003-4.365 10.913M80.17 22.863c-31.527 0-57.475 25.706-57.475 57.475 0 31.526 25.706 57.475 57.475 57.475 31.526 0 57.475-25.706 57.475-57.475S111.94 22.863 80.17 22.863m0 103.31c-25.221 0-45.835-20.614-45.835-45.835S54.95 34.503 80.171 34.503c25.22 0 45.834 20.614 45.834 45.835 0 25.22-20.37 45.834-45.834 45.834"></path><path d="M211.375 106.11q0 6.35-3.15 10.81-3.15 4.47-8.81 6.82-5.66 2.34-13.33 2.34-4.05 0-7.67-.39-3.61-.39-6.64-1.12-3.02-.74-5.32-1.81v-7.96q3.66 1.51 8.94 2.81 5.27 1.29 11.03 1.29 5.37 0 9.08-1.44t5.64-4.15q1.93-2.71 1.93-6.52 0-3.66-1.61-6.13-1.61-2.46-5.35-4.49-3.73-2.02-10.18-4.32-4.54-1.61-8-3.54-3.47-1.93-5.81-4.37-2.35-2.44-3.54-5.66-1.2-3.23-1.2-7.38 0-5.71 2.9-9.79 2.91-4.07 8.06-6.25 5.15-2.17 11.84-2.17 5.71 0 10.57 1.08 4.86 1.07 8.91 2.88l-2.58 7.12q-3.86-1.61-8.18-2.68t-8.91-1.07q-4.59 0-7.74 1.34-3.15 1.34-4.81 3.78-1.66 2.44-1.66 5.81 0 3.76 1.58 6.25 1.59 2.49 5.08 4.42 3.49 1.93 9.26 4.03 6.29 2.29 10.69 4.86 4.39 2.56 6.69 6.25 2.29 3.68 2.29 9.35m54.3 11.67v7.32h-39.75V53.72h39.75v7.32h-31.45v23.1h29.64v7.22h-29.64v26.42zM81.64 91.997a10.398 10.398 0 1 0-6.695-18.33l5.931 7.657-9.2-2.662a10.398 10.398 0 0 0 9.964 13.335"></path><path d="M118.961 80.316c-9.476-12.863-23.552-20.244-38.613-20.244-14.391 0-28.066 6.853-37.494 18.787l-1.363 1.717 1.3 1.764c9.476 12.863 23.552 20.244 38.613 20.244 14.391 0 28.066-6.853 37.494-18.786l1.363-1.718zM81.427 96.03a14.446 14.446 0 0 1-13.824-18.55l-3.308-.962a17.802 17.802 0 0 0 5.45 18.574c-8.018-2.442-15.296-7.388-20.968-14.391A43.087 43.087 0 0 1 69.982 67.2l.3.449 2.11 2.717a14.336 14.336 0 0 1 9.035-3.19c7.741.314 13.855 6.68 13.855 14.427S89.168 95.717 81.427 96.03m11.753-.993a17.818 17.818 0 0 0-.394-27.223c7.712 2.52 14.699 7.357 20.189 14.14A43.323 43.323 0 0 1 93.18 95.03"></path></svg></svg>